<svg width="76" height="35" viewBox="0 0 76 35" fill="none" xmlns="http://www.w3.org/2000/svg">
<path d="M20.9004 31.6578C20.9422 31.6004 20.9836 31.5434 21.0254 31.486C21.2108 31.4404 21.3079 31.2829 21.4291 31.16C24.1895 28.3628 27.0163 25.637 29.9946 23.0678C34.0631 19.5578 38.3263 16.3131 42.8529 13.4112C46.7761 10.896 50.8691 8.70766 55.1754 6.9204C57.9979 5.74917 60.912 4.86884 63.8904 4.19287C65.2263 3.88971 66.5808 3.69507 68.0805 3.51647C66.2721 2.78941 64.5237 2.44319 62.7381 2.33299C60.0912 2.17001 57.4794 2.46683 54.9127 3.13225C51.3986 4.04382 48.1636 5.58957 45.1156 7.52629C41.422 9.87298 38.0911 12.6833 34.9274 15.6916C30.6849 19.7255 26.7845 24.0739 23.1192 28.6326C22.3812 29.5509 21.6005 30.4393 20.9718 31.4416C20.9038 31.4855 20.8747 31.5493 20.8768 31.6295C20.8384 31.6451 20.7995 31.6603 20.7611 31.676C20.7746 31.6924 20.7966 31.7245 20.8004 31.7228C20.8358 31.7051 20.8679 31.6806 20.9004 31.6578ZM13.8 25.3507C13.8004 25.5225 13.9157 25.6441 13.9942 25.7792C15.0058 27.5163 16.0213 29.2512 17.0354 30.9865C17.1841 31.2406 17.3323 31.4948 17.5007 31.7832C17.6211 31.6384 17.7042 31.5442 17.7807 31.445C21.269 26.9049 25.0015 22.5733 28.9492 18.425C33.3002 13.8528 37.9066 9.5673 43.1434 6.00968C47.0215 3.37503 51.0819 1.13136 55.9007 0.650871C55.6968 0.548694 55.5081 0.492959 55.3033 0.462137C53.2116 0.147584 51.1073 0.015008 48.9932 0.00107482C45.7164 -0.0204584 42.4775 0.278472 39.3155 1.17695C36.2211 2.05601 33.4116 3.45947 31.1485 5.7973C28.1136 8.93312 25.1665 12.1504 22.2959 15.437C21.0351 16.8806 19.7748 18.3237 18.5141 19.7673C17.8225 18.4917 17.1283 17.2179 16.4405 15.9407C14.5486 12.4291 12.6731 8.90821 10.7617 5.40717C10.0895 4.1764 9.18512 3.10565 8.01304 2.32328C5.57473 0.695203 2.94219 0.604848 0.215498 1.46786C-0.0500781 1.55189 -0.0382559 1.67982 0.0833433 1.8884C2.19106 5.49752 4.29456 9.10876 6.39805 12.72C8.16462 15.7524 9.92147 18.7902 11.6999 21.8159C12.394 22.9977 13.0273 24.2158 13.8 25.3507ZM37.2386 20.4787C37.4687 20.5868 37.5882 20.4614 37.7208 20.3778C40.6168 18.5547 43.6205 16.9253 46.7094 15.4551C50.7091 13.5509 54.8093 11.903 59.0855 10.7157C61.2523 10.1141 63.4416 9.61754 65.67 9.29707C66.9646 9.11088 68.2591 8.96394 69.5684 8.90103C70.895 8.83728 72.2153 8.80012 73.5393 8.91201C74.0435 8.95465 74.5497 8.97112 75.0551 8.99941C74.8875 8.82883 74.714 8.71526 74.5286 8.62532C71.5651 7.18598 68.4246 6.78234 65.1676 6.99725C62.2653 7.18893 59.4558 7.81677 56.7198 8.76592C54.0278 9.69945 51.4615 10.923 48.9755 12.3126C44.8086 14.6411 40.9495 17.41 37.2386 20.4787Z" fill="white"/>
<path d="M18.5136 19.7681C19.7743 18.3246 21.0347 16.881 22.2954 15.4378C25.1661 12.1513 28.1127 8.93397 31.1481 5.79815C33.4112 3.4599 36.2206 2.05645 39.3151 1.17781C42.4771 0.279747 45.7155 -0.0196052 48.9927 0.00192797C51.1068 0.0158612 53.2111 0.148437 55.3028 0.462991C55.5076 0.493813 55.6963 0.549544 55.9002 0.651721C51.0819 1.13221 47.021 3.37588 43.1429 6.01053C37.9065 9.56773 33.3001 13.8532 28.9487 18.4259C25.0014 22.5742 21.269 26.9053 17.7802 31.4459C17.7038 31.5451 17.6206 31.6392 17.5003 31.7841C17.3318 31.4953 17.1836 31.2411 17.035 30.9873C16.0208 29.252 15.0054 27.5171 13.9937 25.7801C13.9152 25.6454 13.7999 25.5234 13.7999 25.3515C15.4069 23.5191 16.9733 21.6546 18.5136 19.7681Z" fill="#E94B49"/>
<path d="M18.5136 19.7681C16.9733 21.655 15.4069 23.5195 13.8004 25.3507C13.0273 24.2158 12.3939 22.9981 11.6994 21.8167C9.92101 18.7911 8.16373 15.7532 6.39759 12.7208C4.2941 9.1096 2.1906 5.49794 0.0828813 1.88923C-0.03914 1.68065 -0.0505397 1.55272 0.215036 1.4687C2.94173 0.605685 5.57426 0.696463 8.01258 2.32412C9.18466 3.10649 10.0895 4.17766 10.7612 5.40801C12.673 8.90905 14.5485 12.4299 16.4401 15.9415C17.1279 17.2187 17.8224 18.4926 18.5136 19.7681Z" fill="#A5B3BB"/>
<path d="M20.9717 31.442C21.6008 30.4397 22.3811 29.5513 23.1191 28.633C26.7844 24.0739 30.6845 19.7255 34.9274 15.692C38.0915 12.6837 41.4219 9.87339 45.1155 7.5267C48.1635 5.58998 51.3985 4.04423 54.9127 3.13266C57.4793 2.46682 60.0912 2.17 62.7381 2.3334C64.5237 2.4436 66.2721 2.78982 68.0804 3.51688C66.5807 3.69506 65.2258 3.89012 63.8903 4.19328C60.912 4.86925 57.9978 5.74958 55.1753 6.92081C50.8691 8.70807 46.7761 10.8964 42.8528 13.4116C38.3262 16.3135 34.0631 19.5583 29.9946 23.0682C27.0162 25.6378 24.1895 28.3632 21.429 31.1604C21.3078 31.2833 21.2107 31.4403 21.0249 31.4859C21.0068 31.4716 20.9891 31.4572 20.9717 31.442Z" fill="#A5B3BB"/>
<path d="M37.2386 20.4787C40.9499 17.41 44.809 14.6411 48.9754 12.3126C51.4615 10.923 54.0277 9.69988 56.7198 8.76593C59.4558 7.8172 62.2648 7.18894 65.1675 6.99725C68.425 6.78234 71.565 7.18599 74.5286 8.62533C74.7135 8.71526 74.8874 8.82884 75.0551 8.99942C74.5497 8.97113 74.0434 8.95466 73.5393 8.91202C72.2152 8.80013 70.8949 8.83686 69.5683 8.90104C68.259 8.96395 66.9645 9.11088 65.67 9.29708C63.4415 9.61797 61.2523 10.1141 59.0855 10.7157C54.8092 11.903 50.7095 13.5514 46.7094 15.4551C43.6204 16.9257 40.6168 18.5547 37.7208 20.3778C37.5878 20.4614 37.4687 20.5868 37.2386 20.4787Z" fill="#A5B3BB"/>
<path d="M20.8767 31.6295C20.8751 31.5501 20.9042 31.4864 20.9717 31.442C20.9891 31.4568 21.0064 31.4712 21.0249 31.4855C20.9836 31.543 20.9422 31.6004 20.9004 31.6578L20.8767 31.6295Z" fill="#A5B3BB"/>
<path d="M20.9004 31.6578C20.8675 31.6806 20.8358 31.7047 20.8007 31.7232C20.7969 31.7254 20.775 31.6928 20.7615 31.6764C20.7999 31.6608 20.8387 31.6456 20.8767 31.6295L20.9004 31.6578Z" fill="#A5B3BB"/>
<path d="M37.8077 25.0336C37.8077 24.7245 37.6549 24.5839 37.3007 24.4269L37.052 24.3137C36.3595 23.9987 35.961 23.65 35.961 23.001C35.961 22.2968 36.531 21.8695 37.421 21.8695C37.8403 21.8695 38.2447 21.9801 38.531 22.1676L38.4829 22.9892H37.9437L37.8006 22.1038L38.2739 22.2719V22.5653C37.9606 22.3386 37.7389 22.2178 37.4362 22.2178C37.1009 22.2178 36.8307 22.4298 36.8307 22.7511C36.8307 23.0614 37.0165 23.2231 37.3648 23.3789L37.6405 23.5052C38.3904 23.8425 38.6986 24.1655 38.6986 24.7591C38.6986 25.4512 38.1679 25.9414 37.1639 25.9414C36.7231 25.9414 36.2265 25.843 35.8883 25.6348L35.9234 24.7629H36.471L36.6238 25.7125L36.17 25.5694V25.2878C36.5428 25.4883 36.7847 25.5926 37.163 25.5926C37.5819 25.5926 37.8077 25.3515 37.8077 25.0336Z" fill="#E94B49"/>
<path d="M39.3784 24.2609C39.3784 23.9384 39.3725 23.8159 39.3607 23.5812L39.0009 23.5284V23.2978L40.1519 22.9077L40.2486 22.9622L40.287 23.4182L40.3149 23.506V25.3486L40.2972 25.422V25.8434C40.2972 26.2158 40.3031 26.6422 40.3149 27.1628H39.3611C39.3729 26.6422 39.3788 26.2192 39.3788 25.8468V24.2609H39.3784ZM40.6856 26.8859V27.1633H39.0419V26.8859L39.6039 26.7685H40.1751L40.6856 26.8859ZM40.7168 23.4165C40.4061 23.4165 40.1422 23.742 39.9505 23.9384L39.8977 23.8412C40.2342 23.2109 40.6244 22.9077 41.1429 22.9077C41.7825 22.9077 42.293 23.4249 42.293 24.4003C42.293 25.3456 41.6998 25.9202 41.0377 25.9202C40.51 25.9202 40.2005 25.6205 39.94 25.015L39.9927 24.9086C40.2347 25.232 40.4065 25.4246 40.6987 25.4246C41.0479 25.4246 41.2974 25.1083 41.2974 24.415C41.2974 23.7218 41.0626 23.4165 40.7168 23.4165Z" fill="#E94B49"/>
<path d="M45.3553 24.1465C45.3553 24.2728 45.3461 24.3648 45.3228 24.4624H43.0234V24.1524H44.125C44.407 24.1524 44.4801 24.0473 44.4801 23.7855C44.4801 23.4005 44.2956 23.2096 44.0824 23.2096C43.8379 23.2096 43.615 23.4756 43.615 24.3226C43.615 25.0378 43.9696 25.3604 44.4087 25.3604C44.7254 25.3604 44.9433 25.2283 45.121 25.0454L45.3241 25.2354C45.083 25.694 44.6604 25.9199 44.0916 25.9199C43.2366 25.9199 42.6278 25.3617 42.6278 24.4155C42.6278 23.4376 43.3827 22.9073 44.141 22.9073C44.9162 22.9077 45.3553 23.4368 45.3553 24.1465Z" fill="#E94B49"/>
<path d="M46.6676 24.3146C46.6676 24.9901 46.9935 25.3608 47.4863 25.3608C47.7679 25.3608 47.9782 25.2303 48.1479 25.0344L48.3527 25.2147C48.1264 25.6931 47.7037 25.9207 47.1472 25.9207C46.3467 25.9207 45.6847 25.4085 45.6847 24.4222C45.6847 23.4634 46.3944 22.9077 47.2718 22.9077C47.892 22.9077 48.3269 23.2936 48.3696 23.7614C48.3062 23.9717 48.1842 24.0671 47.9739 24.0671C47.7417 24.0671 47.5513 23.9244 47.5226 23.5111L47.469 23.0922L47.8962 23.3346C47.7134 23.2501 47.5602 23.2092 47.3748 23.2092C47.0362 23.2096 46.6676 23.5212 46.6676 24.3146Z" fill="#E94B49"/>
<path d="M49.0168 25.8316C49.0286 25.5677 49.0346 24.9635 49.0346 24.6V24.3201C49.0346 23.9975 49.0286 23.8155 49.0168 23.5812L48.6537 23.5284V23.2979L49.8841 22.9077L49.985 22.9706L49.9672 23.8214V24.6C49.9672 24.9635 49.9731 25.5677 49.985 25.8316H49.0168ZM50.2691 25.5584V25.8312H48.7103V25.5584L49.255 25.441H49.6987L50.2691 25.5584ZM48.9928 22.0067C48.9928 21.7331 49.214 21.5397 49.4906 21.5397C49.7671 21.5397 49.9884 21.7331 49.9884 22.0067C49.9884 22.2786 49.7671 22.4737 49.4906 22.4737C49.214 22.4737 48.9928 22.2786 48.9928 22.0067Z" fill="#E94B49"/>
<path d="M51.7093 24.1976C51.9517 24.1267 52.3684 24.0169 52.6454 23.9515V24.1964C52.3684 24.266 52.0513 24.3522 51.8795 24.4311C51.6135 24.5434 51.4404 24.7406 51.4404 25.0167C51.4404 25.3106 51.5953 25.4465 51.7933 25.4465C51.9056 25.4465 51.9977 25.4001 52.1856 25.2629L52.4216 25.086L52.4828 25.1708L52.2362 25.4381C51.9517 25.7391 51.7688 25.9203 51.3424 25.9203C50.8881 25.9203 50.5723 25.653 50.5723 25.1704C50.5718 24.7533 50.8032 24.4598 51.7093 24.1976ZM52.156 25.3511V23.8826C52.156 23.3629 52.0551 23.2096 51.6802 23.2096C51.5366 23.2096 51.3859 23.2274 51.13 23.2941L51.5345 23.0657L51.4919 23.4727C51.4771 23.8628 51.2875 24.0199 51.0608 24.0199C50.8514 24.0199 50.7108 23.9194 50.6652 23.726C50.6964 23.2379 51.1693 22.9073 52.015 22.9073C52.7687 22.9073 53.0663 23.2252 53.0663 24.0106V25.3258C53.0663 25.4415 53.1149 25.4972 53.1989 25.4972C53.2605 25.4972 53.3082 25.4655 53.3771 25.368L53.5329 25.4715C53.3918 25.7915 53.1824 25.9144 52.8256 25.9144C52.4267 25.9156 52.2067 25.7062 52.156 25.3511Z" fill="#E94B49"/>
<path d="M54.8654 21.5722L54.9604 21.6318L54.9367 22.4517V24.6C54.9367 25.0104 54.9427 25.4212 54.9545 25.8316H53.983C53.9948 25.4212 54.0007 25.0104 54.0007 24.6V22.1422L53.6359 22.0835V21.8361L54.8654 21.5722ZM55.272 25.5584V25.8312H53.6659V25.5584L54.2278 25.441H54.6716L55.272 25.5584Z" fill="#E94B49"/>
<path d="M55.8905 25.8316C55.9024 25.5677 55.9083 24.9635 55.9083 24.6V24.3201C55.9083 23.9975 55.9024 23.8155 55.8905 23.5812L55.5274 23.5284V23.2979L56.7578 22.9077L56.8587 22.9706L56.841 23.8214V24.6C56.841 24.9635 56.8469 25.5677 56.8587 25.8316H55.8905ZM57.1428 25.5584V25.8312H55.584V25.5584L56.1287 25.441H56.5724L57.1428 25.5584ZM55.8665 22.0067C55.8665 21.7331 56.0877 21.5397 56.3643 21.5397C56.6408 21.5397 56.8621 21.7331 56.8621 22.0067C56.8621 22.2786 56.6408 22.4737 56.3643 22.4737C56.0877 22.4737 55.8665 22.2786 55.8665 22.0067Z" fill="#E94B49"/>
<path d="M57.4426 25.6513L57.4574 24.9318H57.9299L58.0629 25.7167L57.7327 25.6032V25.3617C57.9894 25.5158 58.1954 25.5977 58.4682 25.5977C58.806 25.5977 58.9922 25.4879 58.9922 25.2519C58.9922 25.0674 58.8837 24.947 58.4965 24.833L58.1798 24.7418C57.7255 24.6088 57.4688 24.3082 57.4688 23.867C57.4688 23.3261 57.9033 22.9081 58.6954 22.9081C59.0424 22.9081 59.3228 22.9917 59.6263 23.1442L59.5858 23.7872H59.1142L58.9457 23.0635L59.2717 23.2041V23.4199C59.0627 23.286 58.9347 23.2307 58.6726 23.2307C58.4099 23.2307 58.2347 23.3468 58.2347 23.5592C58.2347 23.7218 58.3221 23.8341 58.7262 23.9552L59.0124 24.0367C59.5702 24.2031 59.7935 24.5084 59.7935 24.9437C59.7935 25.5639 59.2928 25.9203 58.4648 25.9203C58.0806 25.9207 57.7517 25.8316 57.4426 25.6513Z" fill="#E94B49"/>
<path d="M61.6175 25.4411C61.7256 25.4411 61.8219 25.3967 61.9363 25.3106L62.0799 25.452C61.9245 25.7497 61.6496 25.9203 61.2202 25.9203C60.6878 25.9203 60.3758 25.6838 60.3758 25.1054C60.3758 24.901 60.3817 24.744 60.3817 24.5156V23.3992H60.0025V23.0496L60.6971 22.9601L60.3606 23.1961L60.7317 22.1739H61.3308L61.3177 23.2299V25.0412C61.3182 25.3165 61.4431 25.4411 61.6175 25.4411ZM61.9338 22.9968V23.3992H60.8542V22.9968H61.9338Z" fill="#E94B49"/>
<path d="M62.2188 25.6513L62.2335 24.9318H62.706L62.839 25.7167L62.5088 25.6032V25.3617C62.7655 25.5158 62.9716 25.5977 63.2443 25.5977C63.5821 25.5977 63.7683 25.4879 63.7683 25.2519C63.7683 25.0674 63.6598 24.947 63.2726 24.833L62.9559 24.7418C62.5016 24.6088 62.2449 24.3082 62.2449 23.867C62.2449 23.3261 62.6794 22.9081 63.4715 22.9081C63.8185 22.9081 64.0989 22.9917 64.4025 23.1442L64.3619 23.7872H63.8903L63.7219 23.0635L64.0478 23.2041V23.4199C63.8388 23.286 63.7109 23.2307 63.4487 23.2307C63.1861 23.2307 63.0108 23.3468 63.0108 23.5592C63.0108 23.7218 63.0982 23.8341 63.5023 23.9552L63.7886 24.0367C64.3463 24.2031 64.5697 24.5084 64.5697 24.9437C64.5697 25.5639 64.0689 25.9203 63.2409 25.9203C62.8567 25.9207 62.5278 25.8316 62.2188 25.6513Z" fill="#E94B49"/>
<path d="M66.3067 22.3099L66.7323 21.9784L66.5782 23.069H66.088L66.1095 21.9784H69.559L69.5764 23.069H69.0904L68.9363 21.9784L69.3577 22.3099H66.3067ZM67.9546 25.4288L68.8409 25.5166V25.8316H66.8281V25.5166L67.6971 25.4288H67.9546ZM67.339 23.7965C67.339 23.1923 67.339 22.5826 67.3213 21.9784H68.3431C68.3253 22.5708 68.3253 23.1805 68.3253 23.7965V24.0093C68.3253 24.6177 68.3253 25.2274 68.3431 25.8316H67.3213C67.339 25.2392 67.339 24.6295 67.339 24.0135V23.7965Z" fill="#E94B49"/>
<path d="M71.0136 24.1976C71.2559 24.1267 71.6727 24.0169 71.9497 23.9515V24.1964C71.6727 24.266 71.3556 24.3522 71.1838 24.4311C70.9178 24.5434 70.7446 24.7406 70.7446 25.0167C70.7446 25.3106 70.8996 25.4465 71.0976 25.4465C71.2099 25.4465 71.302 25.4001 71.4899 25.2629L71.7259 25.086L71.7871 25.1708L71.5405 25.4381C71.2559 25.7391 71.0731 25.9203 70.6467 25.9203C70.1924 25.9203 69.8766 25.653 69.8766 25.1704C69.8766 24.7533 70.1079 24.4598 71.0136 24.1976ZM71.4603 25.3511V23.8826C71.4603 23.3629 71.3594 23.2096 70.9845 23.2096C70.8409 23.2096 70.6902 23.2274 70.4343 23.2941L70.8388 23.0657L70.7962 23.4727C70.7814 23.8628 70.5918 24.0199 70.3651 24.0199C70.1556 24.0199 70.015 23.9194 69.9694 23.726C70.0007 23.2379 70.4736 22.9073 71.3193 22.9073C72.0729 22.9073 72.3706 23.2252 72.3706 24.0106V25.3258C72.3706 25.4415 72.4192 25.4972 72.5032 25.4972C72.5648 25.4972 72.6125 25.4655 72.6814 25.368L72.8372 25.4715C72.6961 25.7915 72.4867 25.9144 72.1299 25.9144C71.7314 25.9156 71.5114 25.7062 71.4603 25.3511Z" fill="#E94B49"/>
<path d="M73.5701 25.4799L73.9869 25.5584V25.8312H72.8739V25.5584L73.3751 25.4799H73.5701ZM73.5089 23.349L72.8937 23.2578V22.9968H74.5421V23.2578L73.9755 23.349H73.5089ZM74.0882 22.9968L74.7811 24.09L75.8763 25.8316H74.7891L74.0637 24.6713L73.0289 22.9968H74.0882ZM73.0331 25.8316L74.2879 24.1111L74.5303 24.2458L73.4764 25.8312H73.0331V25.8316ZM75.3452 25.4415L76 25.5589V25.8316H74.317V25.5589L75.0906 25.4415H75.3452ZM75.7982 22.9968L74.6016 24.6118L74.3909 24.4594L75.3561 22.9968H75.7982ZM75.2616 23.343L74.8672 23.2578V22.9968H75.8911V23.2578L75.4528 23.343H75.2616Z" fill="#E94B49"/>
<path d="M38.9355 32.1358V32.4372L38.5416 32.5234L38.7392 31.6046H39.1867L39.1631 32.5056C38.8481 32.6796 38.4343 32.8041 37.9298 32.8041C36.7982 32.8041 35.8888 32.1383 35.8888 30.7686C35.8888 29.3799 36.867 28.7331 37.9703 28.7331C38.4149 28.7331 38.7725 28.8323 39.1213 29.0232L39.1449 29.9326H38.6974L38.4955 29.0054L38.8895 29.0962V29.42C38.6095 29.1684 38.3739 29.0645 38.1088 29.0645C37.481 29.0645 36.9295 29.5746 36.9295 30.7733C36.9295 31.9677 37.4586 32.4693 38.0801 32.4693C38.3731 32.4689 38.6602 32.3477 38.9355 32.1358Z" fill="#E94B49"/>
<path d="M39.5143 31.266C39.5143 30.3646 40.1654 29.7713 41.0065 29.7713C41.8442 29.7713 42.4986 30.3519 42.4986 31.266C42.4986 32.1805 41.9164 32.7839 41.0065 32.7839C40.0894 32.7839 39.5143 32.1678 39.5143 31.266ZM41.5038 31.2787C41.5038 30.4465 41.3358 30.0774 41.0069 30.0774C40.6746 30.0774 40.5099 30.4465 40.5099 31.2787C40.5099 32.1155 40.675 32.4778 41.0069 32.4778C41.3354 32.4778 41.5038 32.1155 41.5038 31.2787Z" fill="#E94B49"/>
<path d="M43.1374 32.6952C43.1492 32.4313 43.1551 31.8271 43.1551 31.4636V31.1245C43.1551 30.802 43.1492 30.6795 43.1374 30.4448L42.7777 30.392V30.1615L43.9371 29.7713L44.038 29.8342L44.0916 30.4849V31.4636C44.0916 31.8271 44.0975 32.4313 44.1094 32.6952H43.1374ZM44.3762 32.422V32.6948H42.83V32.422L43.3747 32.3046H43.8227L44.3762 32.422ZM45.8603 30.78V31.4636C45.8603 31.8389 45.8662 32.4313 45.878 32.6952H44.9065C44.9183 32.4313 44.9242 31.8389 44.9242 31.4636V30.8484C44.9242 30.4722 44.8297 30.3388 44.5962 30.3388C44.3872 30.3388 44.1039 30.4942 43.8708 30.769H43.6711V30.3907H44.0684L43.8455 30.5554C44.2571 29.9618 44.5915 29.7718 45.0129 29.7718C45.5221 29.7713 45.8603 30.1032 45.8603 30.78ZM45.5871 32.3051L46.1618 32.4224V32.6952H44.6114V32.4224L45.143 32.3051H45.5871Z" fill="#E94B49"/>
<path d="M46.4624 32.5145L46.4772 31.795H46.9496L47.0826 32.5799L46.7525 32.4664V32.2248C47.0092 32.379 47.2152 32.4609 47.488 32.4609C47.8257 32.4609 48.0119 32.3511 48.0119 32.1151C48.0119 31.9306 47.9034 31.8102 47.5163 31.6962L47.1996 31.605C46.7453 31.472 46.4886 31.1714 46.4886 30.7302C46.4886 30.1893 46.923 29.7713 47.7151 29.7713C48.0622 29.7713 48.3425 29.8549 48.6461 30.0074L48.6056 30.6504H48.134L47.9655 29.9267L48.2915 30.0673V30.2831C48.0825 30.1492 47.9545 30.0939 47.6923 30.0939C47.4297 30.0939 47.2545 30.21 47.2545 30.4224C47.2545 30.5849 47.3419 30.6973 47.7459 30.8184L48.0322 30.8999C48.59 31.0663 48.8133 31.3715 48.8133 31.8068C48.8133 32.4271 48.3126 32.7834 47.4846 32.7834C47.1004 32.7839 46.7715 32.6952 46.4624 32.5145Z" fill="#E94B49"/>
<path d="M50.3312 31.7334C50.3312 32.0986 50.4498 32.2172 50.6504 32.2172C50.8822 32.2172 51.1663 31.9816 51.3415 31.7351H51.5666V32.1231H51.1824L51.3711 31.9546C51.0912 32.4782 50.7002 32.7843 50.2168 32.7843C49.713 32.7843 49.3765 32.5027 49.3867 31.7287L49.4086 30.1509L49.5957 30.3384L49.0704 30.221V29.9736L50.2683 29.8043L50.3607 29.8672L50.3312 30.6968V31.7334ZM51.2039 32.7589L51.1554 32.0686L51.1773 30.1463L51.3643 30.3379L50.856 30.2206V29.9942L52.0251 29.8038L52.118 29.8667L52.1003 30.6964V32.6445L51.7093 32.2793L52.4081 32.4262V32.6994L51.2039 32.7589Z" fill="#E94B49"/>
<path d="M53.8782 28.4359L53.9732 28.4954L53.9496 29.3153V31.4636C53.9496 31.874 53.9555 32.2848 53.9673 32.6952H52.9958C53.0076 32.2848 53.0135 31.874 53.0135 31.4636V29.0058L52.6487 28.9472V28.6997L53.8782 28.4359ZM54.2848 32.422V32.6948H52.6787V32.422L53.2407 32.3046H53.6844L54.2848 32.422Z" fill="#E94B49"/>
<path d="M56.1012 32.3046C56.2093 32.3046 56.3056 32.2603 56.42 32.1742L56.5636 32.3156C56.4082 32.6133 56.1333 32.7839 55.7039 32.7839C55.1715 32.7839 54.8595 32.5474 54.8595 31.969C54.8595 31.7646 54.8654 31.6076 54.8654 31.3791V30.2628H54.4862V29.9132L55.1808 29.8237L54.8443 30.0597L55.2154 29.0375H55.8145L55.8015 30.0935V31.9048C55.8019 32.1797 55.9268 32.3046 56.1012 32.3046ZM56.4175 29.8604V30.2628H55.3379V29.8604H56.4175Z" fill="#E94B49"/>
<path d="M57.8425 31.0612C58.0848 30.9903 58.5016 30.8805 58.7785 30.8151V31.0599C58.5016 31.1296 58.1845 31.2157 58.0126 31.2947C57.7466 31.407 57.5735 31.6042 57.5735 31.8803C57.5735 32.1742 57.7285 32.3101 57.9265 32.3101C58.0388 32.3101 58.1309 32.2637 58.3187 32.1265L58.5548 31.9496L58.616 32.0344L58.3694 32.3017C58.0848 32.6027 57.902 32.7839 57.4756 32.7839C57.0213 32.7839 56.7054 32.5166 56.7054 32.034C56.7054 31.6168 56.9364 31.3234 57.8425 31.0612ZM58.2892 32.2147V30.7462C58.2892 30.2265 58.1883 30.0732 57.8133 30.0732C57.6698 30.0732 57.5191 30.0909 57.2632 30.1577L57.6677 29.9292L57.625 30.3363C57.6103 30.7264 57.4207 30.8835 57.1939 30.8835C56.9845 30.8835 56.8439 30.783 56.7983 30.5896C56.8296 30.1015 57.3025 29.7709 58.1482 29.7709C58.9018 29.7709 59.1995 30.0888 59.1995 30.8742V32.1894C59.1995 32.3051 59.248 32.3608 59.3321 32.3608C59.3937 32.3608 59.4414 32.3291 59.5102 32.2316L59.666 32.335C59.525 32.6551 59.3156 32.7779 58.9588 32.7779C58.5603 32.7792 58.3403 32.5698 58.2892 32.2147Z" fill="#E94B49"/>
<path d="M60.1157 32.6952C60.1275 32.4313 60.1334 31.8271 60.1334 31.4636V31.1245C60.1334 30.802 60.1275 30.6795 60.1157 30.4448L59.756 30.392V30.1615L60.9154 29.7713L61.0163 29.8342L61.0699 30.4849V31.4636C61.0699 31.8271 61.0758 32.4313 61.0876 32.6952H60.1157ZM61.3545 32.422V32.6948H59.8083V32.422L60.353 32.3046H60.8009L61.3545 32.422ZM62.8386 30.78V31.4636C62.8386 31.8389 62.8445 32.4313 62.8563 32.6952H61.8848C61.8966 32.4313 61.9025 31.8389 61.9025 31.4636V30.8484C61.9025 30.4722 61.8079 30.3388 61.5744 30.3388C61.3654 30.3388 61.0821 30.4942 60.8491 30.769H60.6494V30.3907H61.0467L60.8237 30.5554C61.2354 29.9618 61.5698 29.7718 61.9912 29.7718C62.5004 29.7713 62.8386 30.1032 62.8386 30.78ZM62.5654 32.3051L63.14 32.4224V32.6952H61.5897V32.4224L62.1212 32.3051H62.5654Z" fill="#E94B49"/>
<path d="M64.4097 31.1777C64.4097 31.8533 64.7356 32.224 65.2283 32.224C65.51 32.224 65.7202 32.0935 65.89 31.8976L66.0947 32.0779C65.8684 32.5563 65.4458 32.7839 64.8893 32.7839C64.0888 32.7839 63.4267 32.2717 63.4267 31.2854C63.4267 30.3265 64.1365 29.7709 65.0139 29.7709C65.6341 29.7709 66.069 30.1568 66.1116 30.6246C66.0483 30.8349 65.9263 30.9303 65.716 30.9303C65.4838 30.9303 65.2934 30.7876 65.2646 30.3743L65.211 29.9554L65.6383 30.1978C65.4555 30.1133 65.3022 30.0724 65.1169 30.0724C64.7783 30.0732 64.4097 30.3848 64.4097 31.1777Z" fill="#E94B49"/>
<path d="M66.7948 30.2083L66.2615 30.1163V29.8604H67.9352V30.1137L67.4083 30.2087H66.7948V30.2083ZM66.2805 33.6431C66.3299 33.3859 66.5343 33.2656 66.7656 33.2656C66.9227 33.2656 67.1123 33.3074 67.2706 33.5375L67.4526 33.8039L67.2318 33.9032L67.0519 33.8039C67.331 33.6359 67.5704 33.3159 67.7089 32.9223L68.0184 32.0357L68.7876 29.8604H69.1727L67.9871 32.935C67.6979 33.6861 67.4323 34.0851 66.8872 34.0851C66.574 34.0851 66.3016 33.893 66.2805 33.6431ZM67.7722 33.0634L66.4089 29.86H67.4213L68.2079 32.0365L67.7722 33.0634ZM68.775 30.2041L68.2835 30.1163V29.8604H69.3927V30.1163L68.8881 30.2041H68.775Z" fill="#E94B49"/>
</svg>
